<svg id="Layer_1" data-name="Layer 1" xmlns="http://www.w3.org/2000/svg" viewBox="0 0 1263.8 197.6"><defs><style>.cls-1{fill:#fff;}</style></defs><path class="cls-1" d="M401.19,124.67q15,0,24.55,10t9.56,24.83q0,14.79-9.56,24.83t-24.55,10q-12.3,0-21.18-6.77a29.52,29.52,0,0,1-11.29-17.53h11.63a18.22,18.22,0,0,0,7.54,9.89,23.53,23.53,0,0,0,13.3,3.65q9,0,15.08-5.18a22.32,22.32,0,0,0,7.5-13.74H391.49V154.35h32.28a22.33,22.33,0,0,0-7.5-13.73q-6-5.19-15.08-5.19a23.61,23.61,0,0,0-13.3,3.65,18.22,18.22,0,0,0-7.54,9.89H368.72A29.35,29.35,0,0,1,380,131.4Q388.89,124.67,401.19,124.67Z" transform="translate(-368.72 -124.67)"/><path class="cls-1" d="M477.56,145.13v9.8H463.83v38.23H453.45V154.93H439.62v-9.8h37.94Z" transform="translate(-368.72 -124.67)"/><path class="cls-1" d="M505.52,194.41a24.61,24.61,0,0,1-18-7.3,25.53,25.53,0,0,1,0-35.93,25.82,25.82,0,0,1,36,0,25.27,25.27,0,0,1-18,43.23ZM494.85,180a15.3,15.3,0,0,0,21.33,0,15.8,15.8,0,0,0,0-21.71,15.32,15.32,0,0,0-21.33,0,15.8,15.8,0,0,0,0,21.71Z" transform="translate(-368.72 -124.67)"/><path class="cls-1" d="M591.3,165.88a13.78,13.78,0,0,1,6.63,12.39,15,15,0,0,1-5,11.53q-5.05,4.62-14,4.61T565,189.8A15.35,15.35,0,0,1,560,178h10.28a6.28,6.28,0,0,0,2.26,5.18,9.89,9.89,0,0,0,6.39,1.83,10,10,0,0,0,6.44-1.87,6.4,6.4,0,0,0,2.3-5.24,6,6,0,0,0-2.35-4.95,10,10,0,0,0-6.39-1.87h-4V162.9h4.42a23.39,23.39,0,0,1,2.5.1,5.81,5.81,0,0,0,2.69-4.71,4.57,4.57,0,0,0-1.73-3.89,7.35,7.35,0,0,0-4.51-1.29c-4.17,0-6.25,1.85-6.25,5.57H561.91q0-6.83,4.41-10.81t12.11-4q7.4,0,11.77,3.94a12.67,12.67,0,0,1,4.37,9.8A11.6,11.6,0,0,1,591.3,165.88Z" transform="translate(-368.72 -124.67)"/><path class="cls-1" d="M624.15,143.88q8.37,0,13.74,4.9t5.38,13.64v30.74H633.09v-4.51q-4.62,5.76-13.64,5.76a17.78,17.78,0,0,1-11.72-4q-4.82-4-4.81-11.29t4.81-11.24A17.86,17.86,0,0,1,619.45,164q8.73,0,13.64,4.9v-6q0-4.8-2.4-7.06a9.2,9.2,0,0,0-6.54-2.25,10,10,0,0,0-6.43,2,6.51,6.51,0,0,0-2.5,5.42H605a15.58,15.58,0,0,1,5.43-12.44Q615.89,143.89,624.15,143.88Zm-1.34,42.46a12.59,12.59,0,0,0,7.44-2,6.14,6.14,0,0,0,2.84-5.19,6,6,0,0,0-2.84-5.19,13,13,0,0,0-7.44-1.92q-4.71,0-7.11,1.92a6.3,6.3,0,0,0-2.4,5.19,6.41,6.41,0,0,0,2.4,5.23C617.3,185.69,619.67,186.34,622.81,186.34Z" transform="translate(-368.72 -124.67)"/><path class="cls-1" d="M694,145.13v48H683.62V154.93H664.5v38.23H654.13v-48H694Z" transform="translate(-368.72 -124.67)"/><path class="cls-1" d="M728.67,194.41a24.59,24.59,0,0,1-18-7.3,25.51,25.51,0,0,1,0-35.93,25.8,25.8,0,0,1,36,0,25.27,25.27,0,0,1-18,43.23ZM718,180a15.29,15.29,0,0,0,21.32,0,15.77,15.77,0,0,0,0-21.71,15.31,15.31,0,0,0-21.32,0A15.77,15.77,0,0,0,718,180Z" transform="translate(-368.72 -124.67)"/><path class="cls-1" d="M789.48,165.88a13.78,13.78,0,0,1,6.63,12.39,14.94,14.94,0,0,1-5.05,11.53q-5,4.62-14,4.61t-13.93-4.61a15.35,15.35,0,0,1-5-11.81h10.28a6.25,6.25,0,0,0,2.26,5.18,9.89,9.89,0,0,0,6.39,1.83,10,10,0,0,0,6.43-1.87,6.38,6.38,0,0,0,2.31-5.24,6,6,0,0,0-2.36-4.95,10,10,0,0,0-6.38-1.87h-4V162.9h4.42a23.66,23.66,0,0,1,2.5.1,5.81,5.81,0,0,0,2.69-4.71,4.57,4.57,0,0,0-1.73-3.89,7.36,7.36,0,0,0-4.52-1.29c-4.16,0-6.24,1.85-6.24,5.57H760.08q0-6.83,4.42-10.81t12.11-4q7.39,0,11.76,3.94a12.64,12.64,0,0,1,4.37,9.8A11.63,11.63,0,0,1,789.48,165.88Z" transform="translate(-368.72 -124.67)"/><path class="cls-1" d="M844.14,183.65h6.43V207H840.39V193.16h-31V207H799.18V183.65h5.67q4.6-6.33,4.61-17.67V145.13h34.68Zm-27.76,0H834v-29H819.64V166Q819.64,176.65,816.38,183.65Z" transform="translate(-368.72 -124.67)"/><path class="cls-1" d="M876.61,143.88q8.35,0,13.73,4.9t5.38,13.64v30.74H885.54v-4.51q-4.6,5.76-13.64,5.76a17.78,17.78,0,0,1-11.72-4q-4.8-4-4.8-11.29t4.8-11.24A17.86,17.86,0,0,1,871.9,164q8.75,0,13.64,4.9v-6q0-4.8-2.4-7.06a9.17,9.17,0,0,0-6.53-2.25,10.05,10.05,0,0,0-6.44,2,6.51,6.51,0,0,0-2.5,5.42H857.49a15.58,15.58,0,0,1,5.43-12.44Q868.35,143.89,876.61,143.88Zm-1.35,42.46a12.61,12.61,0,0,0,7.45-2,6.13,6.13,0,0,0,2.83-5.19,6,6,0,0,0-2.83-5.19,13,13,0,0,0-7.45-1.92q-4.71,0-7.11,1.92a6.3,6.3,0,0,0-2.4,5.19,6.41,6.41,0,0,0,2.4,5.23C869.75,185.69,872.12,186.34,875.26,186.34Z" transform="translate(-368.72 -124.67)"/><path class="cls-1" d="M941.06,164.54q8.27,3.84,8.27,13.16a14.84,14.84,0,0,1-4.47,11.09q-4.47,4.38-12.83,4.37H906.58v-48h21.13q6.91,0,11.15,3.75a12,12,0,0,1,4.22,9.32A11.37,11.37,0,0,1,941.06,164.54Zm-24.59-10.76v8.93h15.76a6.24,6.24,0,0,0,1-3.17,5.28,5.28,0,0,0-1.88-4.32,7,7,0,0,0-4.85-1.44Zm14.8,30.55a8.49,8.49,0,0,0,5.81-1.83,6.33,6.33,0,0,0,2.06-5,6.1,6.1,0,0,0-2-4.9,8.74,8.74,0,0,0-5.86-1.73h-14.8v13.45Z" transform="translate(-368.72 -124.67)"/><path class="cls-1" d="M1008.12,145.13h10.37v48H957v-48h10.38v38.24h15.17V145.13h10.38v38.24h15.18Z" transform="translate(-368.72 -124.67)"/><path class="cls-1" d="M1062.39,145.13h8v48h-10.19V162.42l-21.71,30.74h-8v-48h10.18v30.74Z" transform="translate(-368.72 -124.67)"/><path class="cls-1" d="M1114.27,145.13h8v48h-10.18V162.42l-21.71,30.74h-8v-48h10.19v30.74Zm-25.46-6.72v-9h26.9v9Z" transform="translate(-368.72 -124.67)"/><path class="cls-1" d="M1198.13,145.13v48h-10.38V154.93h-19.11v38.23h-10.38v-48h39.87Z" transform="translate(-368.72 -124.67)"/><path class="cls-1" d="M1232.81,194.41a24.61,24.61,0,0,1-18-7.3,25.53,25.53,0,0,1,0-35.93,25.82,25.82,0,0,1,36,0,25.27,25.27,0,0,1-18,43.23ZM1222.14,180a15.3,15.3,0,0,0,21.33,0,15.8,15.8,0,0,0,0-21.71,15.32,15.32,0,0,0-21.33,0,15.8,15.8,0,0,0,0,21.71Z" transform="translate(-368.72 -124.67)"/><path class="cls-1" d="M1306.68,183.65h6.44V207h-10.19V193.16h-31V207h-10.19V183.65h5.67q4.6-6.33,4.61-17.67V145.13h34.68Zm-27.76,0h17.58v-29h-14.32V166Q1282.18,176.65,1278.92,183.65Z" transform="translate(-368.72 -124.67)"/><path class="cls-1" d="M1339.15,143.88q8.36,0,13.74,4.9t5.38,13.64v30.74h-10.19v-4.51q-4.61,5.76-13.64,5.76a17.8,17.8,0,0,1-11.72-4q-4.8-4-4.8-11.29t4.8-11.24a17.88,17.88,0,0,1,11.72-3.94q8.74,0,13.64,4.9v-6q0-4.8-2.4-7.06a9.17,9.17,0,0,0-6.53-2.25,10.05,10.05,0,0,0-6.44,2,6.53,6.53,0,0,0-2.49,5.42H1320a15.58,15.58,0,0,1,5.43-12.44Q1330.89,143.89,1339.15,143.88Zm-1.34,42.46a12.59,12.59,0,0,0,7.44-2,6.13,6.13,0,0,0,2.83-5.19,6,6,0,0,0-2.83-5.19,13,13,0,0,0-7.44-1.92q-4.71,0-7.11,1.92a6.3,6.3,0,0,0-2.4,5.19,6.41,6.41,0,0,0,2.4,5.23C1332.3,185.69,1334.67,186.34,1337.81,186.34Z" transform="translate(-368.72 -124.67)"/><path class="cls-1" d="M1396.31,143.88a22.61,22.61,0,0,1,16.9,7.3,26.43,26.43,0,0,1,0,35.88,22.51,22.51,0,0,1-16.9,7.35q-10.95,0-16.81-8.16v26.13h-10.38V145.13h10.38V152Q1385.35,143.88,1396.31,143.88Zm-1.64,40.64a14.65,14.65,0,0,0,10.86-4.37,16.16,16.16,0,0,0,0-22,14.65,14.65,0,0,0-10.86-4.37,14.84,14.84,0,0,0-10.51,4,14.52,14.52,0,0,0-4.66,10.14v2.5a14.48,14.48,0,0,0,4.66,10.13A14.8,14.8,0,0,0,1394.67,184.52Z" transform="translate(-368.72 -124.67)"/><path class="cls-1" d="M1452.31,194.41a24.61,24.61,0,0,1-18-7.3,25.51,25.51,0,0,1,0-35.93,25.8,25.8,0,0,1,36,0,25.27,25.27,0,0,1-18,43.23ZM1441.65,180a15.29,15.29,0,0,0,21.32,0,15.77,15.77,0,0,0,0-21.71,15.31,15.31,0,0,0-21.32,0,15.8,15.8,0,0,0,0,21.71Z" transform="translate(-368.72 -124.67)"/><path class="cls-1" d="M1512.93,145.13h10.37v48h-10.37V176.93a29.25,29.25,0,0,1-11.14,2.11q-7.89,0-12.64-4.27t-4.75-12.15V145.13h10.37v16.53q0,7.68,8.46,7.68a23.91,23.91,0,0,0,9.7-2.11Z" transform="translate(-368.72 -124.67)"/><path class="cls-1" d="M1543.48,173.57a14.11,14.11,0,0,0,5.14,8.83,15.25,15.25,0,0,0,9.65,3.08,14.51,14.51,0,0,0,6.92-1.63,10.14,10.14,0,0,0,4.42-4.23l10.56-.1a20.19,20.19,0,0,1-8.12,10.91,24.4,24.4,0,0,1-14,4q-11.34,0-18.35-7.15t-7-18.11q0-10.86,7-18.06t18.16-7.21q10.56,0,17.19,7.35a25.93,25.93,0,0,1,6.63,18,33.19,33.19,0,0,1-.38,4.33Zm-.1-8.55h27.86a13.58,13.58,0,0,0-4.66-8.74,13.44,13.44,0,0,0-8.69-3,14.55,14.55,0,0,0-9.61,3.17A14.21,14.21,0,0,0,1543.38,165Z" transform="translate(-368.72 -124.67)"/><path class="cls-1" d="M1632.53,193.16h-12.4L1600.92,171v22.19h-10.37v-48h10.37v21.23l18.25-21.23h12.4L1611,168.67Z" transform="translate(-368.72 -124.67)"/><path class="cls-1" d="M633.76,260.41h10.38v48H633.76V289.32H614.65v19.12H604.27v-48h10.38v19.12h19.11Z" transform="translate(-368.72 -124.67)"/><path class="cls-1" d="M674.78,259.16q8.36,0,13.74,4.9t5.38,13.64v30.74H683.71v-4.51q-4.61,5.76-13.64,5.76a17.75,17.75,0,0,1-11.72-4c-3.2-2.65-4.8-6.42-4.8-11.28s1.6-8.62,4.8-11.24a17.88,17.88,0,0,1,11.72-3.94q8.74,0,13.64,4.9v-6c0-3.2-.8-5.56-2.4-7.06a9.18,9.18,0,0,0-6.53-2.26,10.11,10.11,0,0,0-6.44,2,6.55,6.55,0,0,0-2.49,5.43H655.66a15.57,15.57,0,0,1,5.43-12.44Q666.52,259.15,674.78,259.16Zm-1.34,42.46a12.52,12.52,0,0,0,7.44-2,6.1,6.1,0,0,0,2.83-5.18,6,6,0,0,0-2.83-5.19,13,13,0,0,0-7.44-1.92q-4.71,0-7.11,1.92a6.3,6.3,0,0,0-2.4,5.19,6.43,6.43,0,0,0,2.4,5.23Q668.73,301.62,673.44,301.62Z" transform="translate(-368.72 -124.67)"/><path class="cls-1" d="M777.47,298.07h7.21v24.2h-11V308.44H735.2v13.83h-11v-24.2h6.05q6-7.69,6-23.35V241.2h41.21Zm-35.16,0h24.11v-46.5H747.31v23.34Q747.31,290,742.31,298.07Z" transform="translate(-368.72 -124.67)"/><path class="cls-1" d="M800,288.84a14.18,14.18,0,0,0,5.14,8.84,15.33,15.33,0,0,0,9.65,3.08,14.49,14.49,0,0,0,6.92-1.64,10.17,10.17,0,0,0,4.42-4.22l10.57-.1a20.18,20.18,0,0,1-8.12,10.9,24.39,24.39,0,0,1-14,4q-11.34,0-18.35-7.16t-7-18.11a24.89,24.89,0,0,1,7-18.06q7-7.2,18.16-7.2,10.56,0,17.2,7.35a26,26,0,0,1,6.62,18,32.92,32.92,0,0,1-.38,4.32Zm-.1-8.55h27.86a13,13,0,0,0-13.35-11.72,14.62,14.62,0,0,0-9.61,3.17A14.31,14.31,0,0,0,799.85,280.29Z" transform="translate(-368.72 -124.67)"/><path class="cls-1" d="M876.51,260.41h10.38v48H876.51V289.32H857.4v19.12H847v-48H857.4v19.12h19.11Z" transform="translate(-368.72 -124.67)"/><path class="cls-1" d="M919.93,276.74q7.68,0,12.59,4.37a15.84,15.84,0,0,1,0,22.91q-4.9,4.43-12.59,4.42H899v-48h10.37v16.33Zm.1,22.38a7.51,7.51,0,0,0,5.14-1.82,6.47,6.47,0,0,0,0-9.47,7.63,7.63,0,0,0-5.14-1.77H909.36v13.06Z" transform="translate(-368.72 -124.67)"/><path class="cls-1" d="M995.34,241.2a21.12,21.12,0,0,1,15.47,6.29,21.62,21.62,0,0,1,0,30.59,21.05,21.05,0,0,1-15.47,6.34H981.6v24h-11V241.2h24.78Zm0,32.85a10.16,10.16,0,0,0,7.64-3.27,11.74,11.74,0,0,0,0-15.94,10.16,10.16,0,0,0-7.64-3.27H981.6v22.48Z" transform="translate(-368.72 -124.67)"/><path class="cls-1" d="M1045.58,309.69a24.61,24.61,0,0,1-18-7.3,25.51,25.51,0,0,1,0-35.93,25.8,25.8,0,0,1,36,0,25.27,25.27,0,0,1-18,43.23Zm-10.66-14.41a15.32,15.32,0,0,0,21.33,0,15.8,15.8,0,0,0,0-21.71,15.32,15.32,0,0,0-21.33,0,15.8,15.8,0,0,0,0,21.71Z" transform="translate(-368.72 -124.67)"/><path class="cls-1" d="M1138.57,308.44h-11.81l-16.34-22.09v22.09h-10.18V286.35l-16.33,22.09H1072.1l18.73-24.5-17.77-23.53h11.81l15.37,21.13V260.41h10.18v21.13l15.37-21.13h11.82l-17.77,23.53Z" transform="translate(-368.72 -124.67)"/><path class="cls-1" d="M1186.41,298.93h6.44v23.34h-10.19V308.44h-31v13.83h-10.18V298.93h5.67q4.61-6.35,4.61-17.68V260.41h34.68Zm-27.76,0h17.58v-29h-14.32v11.33Q1161.91,291.92,1158.65,298.93Z" transform="translate(-368.72 -124.67)"/><path class="cls-1" d="M1207.64,288.84a14.18,14.18,0,0,0,5.14,8.84,15.35,15.35,0,0,0,9.65,3.08,14.49,14.49,0,0,0,6.92-1.64,10.17,10.17,0,0,0,4.42-4.22l10.57-.1a20.18,20.18,0,0,1-8.12,10.9,24.39,24.39,0,0,1-14,4q-11.34,0-18.35-7.16t-7-18.11a24.89,24.89,0,0,1,7-18.06q7-7.2,18.16-7.2,10.56,0,17.2,7.35a25.9,25.9,0,0,1,6.62,18,31.26,31.26,0,0,1-.38,4.32Zm-.1-8.55h27.86a13,13,0,0,0-13.35-11.72,14.62,14.62,0,0,0-9.61,3.17A14.31,14.31,0,0,0,1207.54,280.29Z" transform="translate(-368.72 -124.67)"/><path class="cls-1" d="M1284.2,260.41h10.38v48H1284.2V289.32h-19.12v19.12h-10.37v-48h10.37v19.12h19.12Z" transform="translate(-368.72 -124.67)"/><path class="cls-1" d="M1338.57,260.41h8v48h-10.19V277.7l-21.71,30.74h-8v-48h10.18v30.74Z" transform="translate(-368.72 -124.67)"/><path class="cls-1" d="M1395.73,260.41v48h-10.18V292.3h-6.25l-13.64,16.14h-12.2l14.6-17.19a16.12,16.12,0,0,1-7.83-5.77,15.72,15.72,0,0,1,1.83-20.41,16.74,16.74,0,0,1,12.25-4.66Zm-20.85,23h10.67V269.82h-10.67a7.78,7.78,0,0,0-5.28,1.83,6.25,6.25,0,0,0-2.11,5,6.13,6.13,0,0,0,2.11,4.9A7.78,7.78,0,0,0,1374.88,283.37Z" transform="translate(-368.72 -124.67)"/></svg>