<svg id="Layer_2" data-name="Layer 2" xmlns="http://www.w3.org/2000/svg" viewBox="0 0 1738.41 523.17"><defs><style>.cls-1{fill:#fff;}</style></defs><rect class="cls-1" width="1738.41" height="523.17" rx="60.28"/><path d="M746.87,470.73v29.2h30.58v-29.2h17.71v76.69H777.45V514.88H746.87v32.54h-17.7V470.73Z" transform="translate(-51.97 -290.9)"/><path d="M849.31,501.89v-5.75h16.56v51.28H849.31v-6.21q-5.17,7.93-15.18,7.93-11.83,0-19.2-7.82a27,27,0,0,1-7.47-19.2q0-12.76,7.93-20.69,7-7,17.82-7Q843.79,494.41,849.31,501.89Zm-12,6.78a12.34,12.34,0,0,0-9.08,3.68,12.65,12.65,0,0,0-3.79,9.31,12.75,12.75,0,0,0,13.22,13.22,11.73,11.73,0,0,0,8.62-3.56,12.71,12.71,0,0,0,4-9.66,12.33,12.33,0,0,0-3.79-9.43A12.71,12.71,0,0,0,837.35,508.67Z" transform="translate(-51.97 -290.9)"/><path d="M908.06,496.14h16.1v20.58l14.6-20.58h18.85l-18.62,24,20.69,27.25H939.45l-15.29-22.19v22.19h-16.1V525.23l-15.29,22.19H872.53l20.7-27.25-18.63-24h18.86l14.6,20.58Z" transform="translate(-51.97 -290.9)"/><path d="M962.67,547.42l9-51.28h13.11l13.33,28.51,13.34-28.51h13.11l9,51.28h-15.87l-4.14-27.25-12.65,27.25h-5.52l-12.64-27.25-4.14,27.25Z" transform="translate(-51.97 -290.9)"/><path d="M1042.69,496.14h16.56v29.32l21.84-29.32h15.41v51.28h-16.56V517.64l-21.84,29.78h-15.41Z" transform="translate(-51.97 -290.9)"/><path d="M1174.68,497.29v15.06a16.46,16.46,0,0,0-10.81-3.91,12.78,12.78,0,0,0-9.43,3.68,13.08,13.08,0,0,0-3.79,9.66,13,13,0,0,0,13.45,13.33,15.9,15.9,0,0,0,10.58-4V546a26.86,26.86,0,0,1-13.11,3.1q-12,0-19.89-7.7a26.12,26.12,0,0,1-8-19.55,26.68,26.68,0,0,1,8.51-20.23q7.69-7.25,19.55-7.25A30.07,30.07,0,0,1,1174.68,497.29Z" transform="translate(-51.97 -290.9)"/><path d="M1202.27,514.65h6.44a22.53,22.53,0,0,1,6.21-12q8-8.28,21.38-8.28,13.58,0,22,8.17a25.48,25.48,0,0,1,7.82,19.08q0,12.08-7.7,19.78t-21.5,7.7q-13.8,0-21.16-7.13a23.83,23.83,0,0,1-7.24-14h-6.21v19.44h-16.56V496.14h16.56Zm34-6.21a12.44,12.44,0,0,0-8.85,3.22q-4,3.8-4,10.23a13.06,13.06,0,0,0,3.56,9.31,12.45,12.45,0,0,0,9.31,3.91,12.07,12.07,0,0,0,8.74-3.33,13.64,13.64,0,0,0,4-10.23,12.94,12.94,0,0,0-3.67-9.55A12.34,12.34,0,0,0,1236.3,508.44Z" transform="translate(-51.97 -290.9)"/><path d="M1282,496.14h45.41v38.63H1335V561.9h-14.72V547.42h-35.06V561.9h-14.72V534.77a12.13,12.13,0,0,0,7-3.22,11.87,11.87,0,0,0,3.68-6.32,43.81,43.81,0,0,0,.81-9.2Zm28.85,38.63v-26h-13.68v9.78A32.78,32.78,0,0,1,1296,528a15.26,15.26,0,0,1-4.6,6.79Z" transform="translate(-51.97 -290.9)"/><path d="M1381.63,501.89v-5.75h16.55v51.28h-16.55v-6.21q-5.18,7.93-15.18,7.93-11.85,0-19.2-7.82a27,27,0,0,1-7.47-19.2q0-12.76,7.93-20.69,7-7,17.82-7Q1376.11,494.41,1381.63,501.89Zm-12,6.78a12.34,12.34,0,0,0-9.08,3.68,12.66,12.66,0,0,0-3.8,9.31A12.77,12.77,0,0,0,1370,534.88a11.74,11.74,0,0,0,8.63-3.56,12.71,12.71,0,0,0,4-9.66,12.33,12.33,0,0,0-3.79-9.43A12.73,12.73,0,0,0,1369.67,508.67Z" transform="translate(-51.97 -290.9)"/><path d="M731,600.62l-3.72-2.94q4.25-6.33,12.47-6.33,5.88,0,9.21,3.07a10.32,10.32,0,0,1,3.39,8,9.5,9.5,0,0,1-1.66,5.58,10.69,10.69,0,0,1-4.35,3.63,10.71,10.71,0,0,1,6.5,4,11.83,11.83,0,0,1,2.25,7.19,12.33,12.33,0,0,1-5.42,10.64,17.1,17.1,0,0,1-9.92,2.87,15.75,15.75,0,0,1-9.86-3A18.71,18.71,0,0,1,724,626l4.7-2.08a11.91,11.91,0,0,0,4.3,5.81,11.63,11.63,0,0,0,6.93,2.15,11.5,11.5,0,0,0,6.65-1.83,8,8,0,0,0,3.53-7q0-8.57-11.62-8.56h-3.92v-4.57h3.92c2.87,0,5.07-.69,6.59-2.09a6.82,6.82,0,0,0,2.29-5.28,6.2,6.2,0,0,0-1.76-4.57q-2-2-5.88-2A10.16,10.16,0,0,0,731,600.62Z" transform="translate(-51.97 -290.9)"/><path d="M764.77,608.52h19.07v22.79h4V642.8h-4.31v-7.18H763v7.18h-4.31V631.31a5.42,5.42,0,0,0,5-3.53q1.11-2.28,1.11-7.18Zm14.37,22.79V612.83h-9.67V623c0,3.61-1.08,6.37-3.26,8.29Z" transform="translate(-51.97 -290.9)"/><path d="M813,626.54l3.91,2.16a15.27,15.27,0,0,1-3.33,4.37,13,13,0,0,1-9,3.33,13.58,13.58,0,0,1-9.43-3.56q-3.95-3.55-4-10.61A15.09,15.09,0,0,1,794.71,612a12,12,0,0,1,9.56-4.08q6.79,0,10.25,5,2.75,3.92,2.55,10.19H796a9.33,9.33,0,0,0,2.55,6.66,8.17,8.17,0,0,0,6.07,2.54,8.39,8.39,0,0,0,5.55-2A10.66,10.66,0,0,0,813,626.54Zm-16.65-7.44h15.93a8.71,8.71,0,0,0-2.78-5.13,7.87,7.87,0,0,0-10.38.07A8.44,8.44,0,0,0,796.31,619.1Z" transform="translate(-51.97 -290.9)"/><path d="M845.47,610.48v5.62a10.27,10.27,0,0,0-8.49-4.05,9.41,9.41,0,0,0-6.79,2.71,11.14,11.14,0,0,0,0,14.79,9.43,9.43,0,0,0,6.73,2.67,10.94,10.94,0,0,0,8.75-4.24v5.61a15.12,15.12,0,0,1-19-1.2,13.67,13.67,0,0,1-4.08-10.16A13.86,13.86,0,0,1,826.67,612a14.12,14.12,0,0,1,10.38-4.08A14.31,14.31,0,0,1,845.47,610.48Z" transform="translate(-51.97 -290.9)"/><path d="M852.85,635.62v-27.1h4.7V618.9h4.83c3.74,0,6.48.9,8.23,2.68a7.68,7.68,0,0,1,2.08,5.68,8,8,0,0,1-2.41,6.07q-2.41,2.29-8,2.29Zm4.7-4.18h4.37a8.85,8.85,0,0,0,4.18-.72,3.88,3.88,0,0,0,1.76-3.46,3.66,3.66,0,0,0-1.69-3.39,7.94,7.94,0,0,0-4.18-.79h-4.44Z" transform="translate(-51.97 -290.9)"/><path d="M876.09,644.3l5.35-15.08,4.31,1.57-6.59,14.75Z" transform="translate(-51.97 -290.9)"/><path d="M933.28,610.48v5.62a10.27,10.27,0,0,0-8.49-4.05,9.41,9.41,0,0,0-6.79,2.71,11.17,11.17,0,0,0,0,14.79,9.43,9.43,0,0,0,6.73,2.67,10.94,10.94,0,0,0,8.75-4.24v5.61a15.12,15.12,0,0,1-19-1.2,13.67,13.67,0,0,1-4.08-10.16A13.9,13.9,0,0,1,914.48,612a14.12,14.12,0,0,1,10.38-4.08A14.31,14.31,0,0,1,933.28,610.48Z" transform="translate(-51.97 -290.9)"/><path d="M962.89,632.35a15.08,15.08,0,0,1-20.57,0,14.83,14.83,0,0,1,0-20.43,15.08,15.08,0,0,1,20.57,0,14.83,14.83,0,0,1,0,20.43Zm-3.53-17.63a9.83,9.83,0,0,0-13.51,0,9.86,9.86,0,0,0-2.78,7.41,9.74,9.74,0,0,0,2.81,7.38,9.8,9.8,0,0,0,13.45,0,9.74,9.74,0,0,0,2.81-7.38A9.88,9.88,0,0,0,959.36,614.72Z" transform="translate(-51.97 -290.9)"/><path d="M995,589.92h5.23a9.23,9.23,0,0,1-2.45,4.08,10.82,10.82,0,0,1-3.14,2.25,21.37,21.37,0,0,1-3.29,1l-1.57.36c-.83.2-1.46.36-1.89.49l-1.7.52a10.22,10.22,0,0,0-1.89.79,12.69,12.69,0,0,0-1.57,1,13.48,13.48,0,0,0-4,5.25,18.53,18.53,0,0,0-1.66,7.15h.13q2.94-5,9.86-5A13.52,13.52,0,0,1,997.17,612a14,14,0,0,1,4,10.19,13.69,13.69,0,0,1-4.11,10.18,14.62,14.62,0,0,1-10.71,4A13.2,13.2,0,0,1,977,633q-4.56-4.18-4.57-14,0-17,7.71-22.32a13.64,13.64,0,0,1,1.24-.76,14,14,0,0,1,1.4-.65c.5-.19.93-.37,1.27-.52a10.51,10.51,0,0,1,1.47-.46l1.31-.32q.36-.11,1.44-.33l1.33-.29a11.28,11.28,0,0,0,3.79-1.41A4.26,4.26,0,0,0,995,589.92Zm-1.47,24.8a9.83,9.83,0,0,0-13.51,0,9.86,9.86,0,0,0-2.78,7.41,9.74,9.74,0,0,0,2.81,7.38,9.8,9.8,0,0,0,13.45,0,9.74,9.74,0,0,0,2.81-7.38A9.88,9.88,0,0,0,993.57,614.72Z" transform="translate(-51.97 -290.9)"/><path d="M1029.58,610.48v5.62a10.27,10.27,0,0,0-8.49-4.05,9.41,9.41,0,0,0-6.79,2.71,11.14,11.14,0,0,0,0,14.79,9.43,9.43,0,0,0,6.73,2.67,11,11,0,0,0,8.75-4.24v5.61a15.12,15.12,0,0,1-19-1.2,13.67,13.67,0,0,1-4.08-10.16,13.86,13.86,0,0,1,4.12-10.28,14.12,14.12,0,0,1,10.38-4.08A14.31,14.31,0,0,1,1029.58,610.48Z" transform="translate(-51.97 -290.9)"/><path d="M1054.71,612.83h-8.48v22.79h-4.7V612.83H1033v-4.31h21.67Z" transform="translate(-51.97 -290.9)"/><path d="M1059.68,608.52h10.25a8.9,8.9,0,0,1,5.68,1.57,6.21,6.21,0,0,1,2.35,5.09,6.07,6.07,0,0,1-2.94,5.42,7.54,7.54,0,0,1,3.39,1.83,7,7,0,0,1,2.16,5.22,7.4,7.4,0,0,1-2.81,6.14,10.32,10.32,0,0,1-6.4,1.83h-11.68Zm4.7,11h5a5.13,5.13,0,0,0,3-.79,3.3,3.3,0,0,0,1.31-2.8,3.13,3.13,0,0,0-1.31-2.62,7.53,7.53,0,0,0-3.78-.65h-4.18Zm0,11.88h5.81a7.37,7.37,0,0,0,4.24-.92,3.58,3.58,0,0,0,1.57-3,3.75,3.75,0,0,0-1.37-3.07,7,7,0,0,0-4.25-1h-6Z" transform="translate(-51.97 -290.9)"/><path d="M1107.86,626.54l3.92,2.16a15.64,15.64,0,0,1-3.33,4.37,13,13,0,0,1-9,3.33,13.6,13.6,0,0,1-9.44-3.56q-3.95-3.55-4-10.61a15.09,15.09,0,0,1,3.56-10.28,12,12,0,0,1,9.57-4.08q6.78,0,10.25,5,2.73,3.92,2.54,10.19h-21.09a9.42,9.42,0,0,0,2.55,6.66,8.17,8.17,0,0,0,6.07,2.54,8.39,8.39,0,0,0,5.55-2A10.54,10.54,0,0,0,1107.86,626.54Zm-16.65-7.44h15.93a8.75,8.75,0,0,0-2.77-5.13A7.87,7.87,0,0,0,1094,614,8.4,8.4,0,0,0,1091.21,619.1Z" transform="translate(-51.97 -290.9)"/><path d="M1119.15,635.62v-27.1h4.7v11.1h12.8v-11.1h4.7v27.1h-4.7V623.93h-12.8v11.69Z" transform="translate(-51.97 -290.9)"/><path d="M1150.23,635.62v-27.1h4.7v11.1h12.8v-11.1h4.7v27.1h-4.7V623.93h-12.8v11.69Z" transform="translate(-51.97 -290.9)"/><path d="M1204.26,632.35a15.08,15.08,0,0,1-20.57,0,14.83,14.83,0,0,1,0-20.43,15.08,15.08,0,0,1,20.57,0,14.83,14.83,0,0,1,0,20.43Zm-3.53-17.63a9.38,9.38,0,0,0-6.76-2.67,9.29,9.29,0,0,0-6.75,2.71,9.86,9.86,0,0,0-2.78,7.41,9.74,9.74,0,0,0,2.81,7.38,9.8,9.8,0,0,0,13.45,0,9.73,9.73,0,0,0,2.8-7.38A9.87,9.87,0,0,0,1200.73,614.72Z" transform="translate(-51.97 -290.9)"/><path d="M1212.65,644.3l5.35-15.08,4.31,1.57-6.6,14.75Z" transform="translate(-51.97 -290.9)"/><path d="M1269.12,608.52v27.1h-4.7V612.83h-9.67V625q0,5.3-2.08,7.84a8,8,0,0,1-6.53,2.87,12.15,12.15,0,0,1-1.44-.13v-4.31a5.29,5.29,0,0,0,1,.13,3.74,3.74,0,0,0,3.39-1.76,9,9,0,0,0,.91-4.64V608.52Z" transform="translate(-51.97 -290.9)"/><path d="M1298.11,626.54l3.91,2.16a15.27,15.27,0,0,1-3.33,4.37,13,13,0,0,1-9,3.33,13.58,13.58,0,0,1-9.43-3.56q-3.95-3.55-4-10.61a15.09,15.09,0,0,1,3.56-10.28,12,12,0,0,1,9.56-4.08q6.8,0,10.25,5,2.74,3.92,2.55,10.19h-21.09a9.33,9.33,0,0,0,2.55,6.66,8.15,8.15,0,0,0,6.07,2.54,8.39,8.39,0,0,0,5.55-2A10.66,10.66,0,0,0,1298.11,626.54Zm-16.65-7.44h15.93a8.71,8.71,0,0,0-2.78-5.13,7.87,7.87,0,0,0-10.38.07A8.44,8.44,0,0,0,1281.46,619.1Z" transform="translate(-51.97 -290.9)"/><path d="M1321.41,608.52h4.7v11.1l10.19-11.1h5.48L1330,621.06,1343,635.62h-5.88l-10-11.43-.92.92v10.51h-4.7V625.11l-.91-.92-10.06,11.43h-5.87l12.93-14.56-11.76-12.54h5.49l10.18,11.1Z" transform="translate(-51.97 -290.9)"/><path d="M1347.66,608.52h4.7v17.89l18.54-20v29.19h-4.7V617.53l-18.54,20Z" transform="translate(-51.97 -290.9)"/><path d="M1397.54,612.83h-8.49v22.79h-4.7V612.83h-8.49v-4.31h21.68Z" transform="translate(-51.97 -290.9)"/><path d="M1417.71,608.52h21.81v27.1h-4.7V612.83h-12.41v22.79h-4.7Z" transform="translate(-51.97 -290.9)"/><path d="M1471.35,632.35a15.08,15.08,0,0,1-20.57,0,14.83,14.83,0,0,1,0-20.43,15.08,15.08,0,0,1,20.57,0,14.83,14.83,0,0,1,0,20.43Zm-3.53-17.63a9.38,9.38,0,0,0-6.76-2.67,9.29,9.29,0,0,0-6.75,2.71,9.86,9.86,0,0,0-2.78,7.41,9.74,9.74,0,0,0,2.81,7.38,9.8,9.8,0,0,0,13.45,0,9.73,9.73,0,0,0,2.8-7.38A9.87,9.87,0,0,0,1467.82,614.72Z" transform="translate(-51.97 -290.9)"/><path d="M1484.57,608.52h19.06v22.79h4V642.8h-4.31v-7.18h-20.63v7.18h-4.31V631.31a5.44,5.44,0,0,0,5-3.53q1.11-2.28,1.11-7.18Zm14.36,22.79V612.83h-9.66V623q0,5.41-3.27,8.29Z" transform="translate(-51.97 -290.9)"/><path d="M1533.4,612.37v-3.85h4.7v27.1h-4.7v-3.79a11.14,11.14,0,0,1-9.27,4.57,12.81,12.81,0,0,1-9.34-3.79q-3.86-3.78-3.85-10.57t3.82-10.42a12.87,12.87,0,0,1,9.37-3.75A11,11,0,0,1,1533.4,612.37Zm-8.75-.32a8.47,8.47,0,0,0-6.3,2.64,10.09,10.09,0,0,0-2.58,7.35,11,11,0,0,0,2.39,7.34,8,8,0,0,0,6.49,2.84,8.1,8.1,0,0,0,6.56-2.94,10.78,10.78,0,0,0,2.45-7.18q0-4.83-2.74-7.44A8.85,8.85,0,0,0,1524.65,612.05Z" transform="translate(-51.97 -290.9)"/><path d="M1551.68,631.83v18.8H1547V608.52h4.7v3.79a11.38,11.38,0,0,1,9.27-4.44,11.87,11.87,0,0,1,9.63,4.28,15.28,15.28,0,0,1,3.56,10.08,14.94,14.94,0,0,1-3.53,10,11.76,11.76,0,0,1-9.46,4.15A11.34,11.34,0,0,1,1551.68,631.83Zm8.81.39a7.92,7.92,0,0,0,6.4-2.9,10.73,10.73,0,0,0,2.42-7.09,10.18,10.18,0,0,0-2.68-7.44,8.4,8.4,0,0,0-6.2-2.74,8.63,8.63,0,0,0-6.27,2.74,10,10,0,0,0-2.74,7.38,10.58,10.58,0,0,0,2.51,7.15A8.28,8.28,0,0,0,1560.49,632.22Z" transform="translate(-51.97 -290.9)"/><path d="M1604.27,632.35a15.08,15.08,0,0,1-20.57,0,14.83,14.83,0,0,1,0-20.43,15.08,15.08,0,0,1,20.57,0,14.83,14.83,0,0,1,0,20.43Zm-3.53-17.63a9.83,9.83,0,0,0-13.51,0,9.86,9.86,0,0,0-2.78,7.41,9.74,9.74,0,0,0,2.81,7.38,9.8,9.8,0,0,0,13.45,0,9.74,9.74,0,0,0,2.81-7.38A9.88,9.88,0,0,0,1600.74,614.72Z" transform="translate(-51.97 -290.9)"/><path d="M1615.53,608.52h4.7v11.1l11-11.1H1637l-11.76,12.08,13.19,15h-6.13l-10.58-11.89-1.44,1.38v10.51h-4.7Z" transform="translate(-51.97 -290.9)"/><path d="M1643.8,635.29a3.15,3.15,0,1,1,2.29,1A3.13,3.13,0,0,1,1643.8,635.29Z" transform="translate(-51.97 -290.9)"/><path d="M567.19,455.87h-106C483,441.6,503.65,423,506.05,402.74c1.2-9.87-1.11-24.37-19-37.31-9.92-7.15-20-10.8-29.88-10.8-31.52,0-49.35,35.35-59,67-11.47-40.28-33.75-92-71.94-92-11.16,0-22.23,4.41-33,13.12-21.26,17.21-23.39,35.08-21.39,47,4.45,26.77,33.92,49.8,62.29,66.11H217A15.35,15.35,0,0,0,201.49,471v82.83A15.35,15.35,0,0,0,217,569h4.05V750.11a15.35,15.35,0,0,0,15.51,15.17H547.62a15.39,15.39,0,0,0,15.56-15.17V569h4.05a15.35,15.35,0,0,0,15.56-15.16V471a15.41,15.41,0,0,0-15.6-15.12Zm-15.57,81.41H421.71V486.15H551.62v51.13ZM457.19,385c3.07,0,7,1.65,11.38,4.85,7.11,5.16,6.71,8.31,6.63,9.38-1.34,11-24,28.41-50.42,42.77,7.78-30.54,20.45-57,32.41-57Zm-154.68-.09c-.45-2.49-1.51-9.11,10.54-18.85,3.46-2.8,8.58-6.13,13.16-6.13,17.11,0,34.68,41,45,81-32.28-15.74-65.67-38.1-68.65-56Zm61.62,101.29v51.13H232.53V486.15Zm-112,69.31h112V735h-112V555.46ZM421.75,735V555.46H532.06V735Z" transform="translate(-51.97 -290.9)"/></svg>