<svg id="Layer_1" data-name="Layer 1" xmlns="http://www.w3.org/2000/svg" viewBox="0 0 1181.72 1277.73"><defs><style>.cls-1{fill:#fff;}</style></defs><path class="cls-1" d="M834,615.15c31.24-8.1,63.12-15.24,92.81-28.16,17.87-7.78,48-23.68,37.15-47.93-6.7-14.92-23.12-25.08-36.64-32.95-6.38-3.71-13.6-5.52-20.67-7.55q-9.24-2.64-18.62-4.77c-22.14-5-44.94-7.72-67.66-6.7C781.82,488.81,745,502,714.9,526.32c-31,25-53.19,59.52-69.17,95.68-19,43-30.15,89.27-37.1,135.67-7.92,52.84-10.44,106.44-9.49,159.83A1312.45,1312.45,0,0,0,612.88,1083a1258.06,1258.06,0,0,0,32.34,155.49c12.15,43.77,26.87,87.11,46.41,128.18,14.4,30.26,31.62,61,56,84.44a121.26,121.26,0,0,0,14.76,12.19c2.29,1.59,4.45-2.15,2.18-3.73-24.73-17.23-42.2-44.27-56.52-70.23-20.35-36.91-35.5-76.63-48.21-116.73-15.24-48.07-26.82-97.3-35.71-146.92a1340.08,1340.08,0,0,1-19-161.51c-3-53.13-2.74-106.54,2.12-159.55,4.4-48,12.57-96.1,27.56-142,12.66-38.85,30.52-77,57.36-108.17,24.15-28,55.5-48.91,91.6-57.84,43.14-10.68,88.58-4.36,130.44,8.76,9.57,3,18,8.39,26.05,14.29,6.34,4.62,12.65,9.93,17.06,16.49,6.12,9.09,5.86,18.88-1.45,27.17-8.67,9.84-21.59,15.89-33.46,20.88-15,6.32-30.72,11.11-46.41,15.5-14.34,4-28.79,7.55-43.19,11.29-2.69.69-1.55,4.86,1.14,4.17Z" transform="translate(-402.52 -486.88)"/><path class="cls-1" d="M833.87,610.9a92.6,92.6,0,0,0-44-5.28,110.93,110.93,0,0,0-42,14.45,138.43,138.43,0,0,0-35.44,29.73,149.7,149.7,0,0,0-24.88,40.65,133.85,133.85,0,0,0-10.07,46.73c-.06,2-.06,4,0,6,.06,2.77,4.38,2.78,4.33,0a128.34,128.34,0,0,1,7.77-45.91,142.79,142.79,0,0,1,22.43-40.12,138.19,138.19,0,0,1,33.18-30.32,110.33,110.33,0,0,1,40-16.11,89.4,89.4,0,0,1,42.38,2.58c1.76.56,3.51,1.16,5.24,1.82a2.19,2.19,0,0,0,2.66-1.51,2.22,2.22,0,0,0-1.51-2.66Z" transform="translate(-402.52 -486.88)"/><path class="cls-1" d="M871.89,601.94c0-13.32-2.47-27.26-11-37.92-7-8.81-17.42-13.86-28.4-15.57-27.62-4.3-56.79,7.43-80.1,21.25-25.68,15.23-50.34,36.95-63.18,64.41a80.61,80.61,0,0,0-6.33,18.95c-1.8,9.32-1.61,19.08-2.2,28.52-1.67,26.77-3.13,53.55-4.07,80.36-1.12,32.14-1.92,64.55.86,96.64a257.75,257.75,0,0,0,8.9,49.06c4.28,14.94,9,29.7,12.31,44.92,2.58,11.88,5.57,24.47,5.74,36.64.4,29.06,1.66,58.13,4.07,87.1,4.26,51,11.7,102.36,27.05,151.32,11.74,37.43,28.53,75.66,56.94,103.54a132.28,132.28,0,0,0,19.11,15.58c2.31,1.56,4.48-2.19,2.18-3.73-30.9-20.71-50.55-54.62-64.1-88.45-17.89-44.67-27.13-92.66-33-140.25-3.36-27.43-5.49-55-6.73-82.59q-1-21.59-1.25-43.2c-.09-6.83-1.5-13.7-2.66-20.43a416,416,0,0,0-12.07-50c-4.2-13.89-8-27.77-10.2-42.15-3.69-24.67-4-49.85-3.75-74.73.16-21,.89-42,1.85-63,1.18-25.84,2.18-51.82,4.27-77.58,2.29-28.34,23.18-52.76,44.14-70.14,22.41-18.58,50.48-33.79,79.64-37.74,11.34-1.53,23.66-1.28,34.22,3.61,10.36,4.81,17.37,13.8,20.64,24.63a72.43,72.43,0,0,1,2.72,21c0,2.78,4.32,2.78,4.32,0Z" transform="translate(-402.52 -486.88)"/><path class="cls-1" d="M811.65,1342.3c-8.12,8.71-13.73,19.55-18.48,30.37-5.91,13.43-10.63,27.35-15.25,41.25-5,15-9.8,30-15.28,44.78-5.35,14.4-11.28,28.58-18.94,42-6.93,12.11-15.12,23.33-26,32.22-1.29,1.06-2.17,1.73-3.56,2.73a2.22,2.22,0,0,0-.77,3,2.18,2.18,0,0,0,3,.78c11.42-8.21,20.46-19.19,27.86-31.07,8.16-13.09,14.46-27.29,20-41.64,5.76-14.83,10.71-30,15.7-45.05,4.67-14.13,9.31-28.31,15-42.09a182.81,182.81,0,0,1,8.15-17.33c1.39-2.57,2.87-5.08,4.47-7.53a73.45,73.45,0,0,1,4.68-6.44c.8-1,1.63-1.92,2.48-2.84,1.9-2-1.15-5.09-3.05-3Z" transform="translate(-402.52 -486.88)"/><path class="cls-1" d="M805.21,489.37c-38.52,1.15-76.69,9.36-111.4,26.34-32,15.67-60.18,38.42-83.42,65.35-24.34,28.2-43.46,60.61-58.58,94.58-16.33,36.71-28.2,75.31-36.95,114.49a889,889,0,0,0-18.15,123.54A1097.33,1097.33,0,0,0,494,1037.33a1069.67,1069.67,0,0,0,9.69,113.34c4.4,31.25,10.24,62.42,18.81,92.81,5.83,20.7,15,40.2,25.29,59,13.4,24.5,28.7,48,44.56,70.91,32.5,47,67.93,91.93,101.72,138,6.56,9,13,18,19.3,27.11,1.56,2.28,5.31.12,3.73-2.18-29.72-43.42-62.8-84.49-93.83-127-32.1-44-65.1-89.42-86.84-139.62-12.7-29.34-18.91-61.76-24.33-93.14a991.41,991.41,0,0,1-12.27-107.73,1121.42,1121.42,0,0,1-1-120.23,954.32,954.32,0,0,1,13.55-124.36c7.09-39.61,17-78.82,31-116.58,13.11-35.4,29.94-69.66,51.88-100.46,20.67-29,46.14-54.79,76.2-74.06,31.42-20.13,67.21-32.57,104.18-37.29,9.81-1.25,19.68-2,29.56-2.26,2.77-.09,2.79-4.41,0-4.32Z" transform="translate(-402.52 -486.88)"/><path class="cls-1" d="M834.29,616.57c29-2.07,58.26-2.47,87.19.75,28.29,3.15,57.61,9.77,81.79,25.44s38.8,40.57,41.11,69.36c.79,9.94-.42,19.44-1.17,29.33a273.62,273.62,0,0,0-.36,35.42c1.17,22.07,4.82,43.93,9.4,65.52,9.74,45.83,23.5,91.25,26.31,138.27.42,7.06-.28,14.33-.54,21.4q-.39,11.07-.93,22.15-1.1,22.88-2.94,45.72a856.71,856.71,0,0,1-13.16,97.31c-6.41,32.09-15.14,63.85-27.66,94.13-12,29.06-27.75,56.9-48.39,80.73a215.37,215.37,0,0,1-75.26,56.16,221.26,221.26,0,0,1-23.33,8.76c-2.65.83-1.52,5,1.14,4.17a218.81,218.81,0,0,0,83.69-48.54c23.15-21.63,41.4-48.06,55.51-76.32,14.73-29.51,25.21-61,33-93,7.88-32.46,13-65.56,16.5-98.76,3.28-31,5.1-62.16,6.21-93.31.28-7.8.91-15.7.29-23.48-.94-12-2.45-23.91-4.38-35.77-3.8-23.34-9.29-46.35-14.72-69.35-10.77-45.64-20.34-91.77-15.33-138.9,3.22-30.22-4.88-61.05-27.24-82.49-20.5-19.65-48.62-29.45-76-34.72-29.73-5.72-60.29-6.62-90.47-5.41q-10.12.4-20.23,1.14c-2.75.2-2.78,4.52,0,4.32Z" transform="translate(-402.52 -486.88)"/><path class="cls-1" d="M946.11,576.54c49.8.64,99.16,12.73,141.36,39.75,39.75,25.46,70.69,62.3,93.55,103.28,25.88,46.41,42,97.8,52.73,149.68,12.14,59,17.21,119.29,18.09,179.43.93,64.16-3,128.37-10.54,192.08q-1.42,12.06-3,24.1c-.36,2.75,4,2.73,4.32,0,8.61-64.79,13.58-130.13,13.7-195.51.11-61.46-4-123.16-15-183.7-9.66-53.27-24.74-106.15-49.29-154.58-21.61-42.63-51.17-81.68-90-110-39.57-28.91-86.94-44.38-135.6-48-6.77-.5-13.54-.77-20.32-.86-2.78,0-2.78,4.29,0,4.33Z" transform="translate(-402.52 -486.88)"/><path class="cls-1" d="M887.49,1411.19c31-5.08,61.83-12,91.62-22,23.67-8,46.78-18.09,68.07-31.24a223.83,223.83,0,0,0,48.34-39.62,200.62,200.62,0,0,0,31.59-46.65,248.19,248.19,0,0,0,18.43-52.77,396.08,396.08,0,0,0,8.64-57.84c1.68-20.56,2.21-41.19,2.29-61.8.09-21.61-.32-43.22-.62-64.82-.31-22.26-.51-44.53-.06-66.79.46-22.7,1.61-45.4,4-68q.88-8.25,2-16.45c.37-2.75-4-2.73-4.32,0-3,22.29-4.63,44.73-5.47,67.2-.83,22.18-.86,44.37-.64,66.56.21,21.73.67,43.45.8,65.17.13,20.74,0,41.49-1.14,62.2a457.81,457.81,0,0,1-6.49,58.39,273,273,0,0,1-15.27,53.71,200.88,200.88,0,0,1-27.42,47.74,207,207,0,0,1-43.42,41.16c-19.27,13.69-40.51,24.48-62.49,33.11-27.44,10.79-56.07,18.4-85,24.15q-12.25,2.43-24.58,4.44c-2.74.45-1.58,4.61,1.14,4.17Z" transform="translate(-402.52 -486.88)"/><path class="cls-1" d="M1238.57,1263.77c-10.73,17.62-25.43,32.55-41.86,44.9-17.47,13.12-36.82,23.61-56.77,32.42a503.06,503.06,0,0,1-62.73,22.35c-19.83,5.75-39.91,10.59-60.09,15-16.25,3.53-32.57,6.69-48.83,10.16l-4.72,1c-2.71.6-1.56,4.77,1.15,4.17,15.79-3.48,31.67-6.51,47.48-9.87,20-4.26,39.91-8.9,59.6-14.41a534.77,534.77,0,0,0,63.2-21.59c20.39-8.56,40.23-18.69,58.34-31.44,17.2-12.12,32.84-26.63,44.78-44,1.46-2.11,2.85-4.27,4.18-6.46,1.45-2.38-2.29-4.55-3.73-2.18Z" transform="translate(-402.52 -486.88)"/><path class="cls-1" d="M1105.62,688A263.66,263.66,0,0,1,1163,758.27c14.5,25.77,24.78,53.7,32,82.33,7.47,29.69,11.71,60.1,14.16,90.59,2.49,30.94,3.16,62,3.19,93,0,30.34-.57,60.68-.65,91q0,5.41,0,10.81c0,2.78,4.32,2.79,4.32,0-.06-30.46.55-60.92.64-91.38.1-31.34-.32-62.71-2.47-94-2.1-30.57-5.83-61.12-12.59-91-6.61-29.21-16.21-57.85-30-84.5a268.75,268.75,0,0,0-54.34-72.46q-4.23-4-8.63-7.76c-2.09-1.81-5.16,1.23-3.05,3.05Z" transform="translate(-402.52 -486.88)"/><path class="cls-1" d="M796.53,880.38c12.32-5.09,24.74-9.94,37.35-14.28a358.25,358.25,0,0,1,39.75-11.38A183.23,183.23,0,0,1,912.24,850c11.61,0,23,1.41,33.92,5.75a58.38,58.38,0,0,1,25.41,19.69q1.3,1.81,2.49,3.71c1.47,2.36,5.21.19,3.73-2.18a62.62,62.62,0,0,0-25.55-23.22c-10.73-5.23-22.63-7.48-34.5-8-13.12-.54-26.3,1-39.17,3.49A326.06,326.06,0,0,0,838,860.15c-12.94,4.27-25.68,9.13-38.29,14.27l-4.36,1.79a2.22,2.22,0,0,0-1.51,2.66,2.17,2.17,0,0,0,2.66,1.51Z" transform="translate(-402.52 -486.88)"/><path class="cls-1" d="M786.11,854.81a264.19,264.19,0,0,1,37.4-15.69,239.17,239.17,0,0,1,42.8-10.22c13.62-1.87,28.72-2.32,42.25-.29s26.1,6.27,37.31,13.85c11.67,7.9,20.73,19.26,26.8,32.19q1.22,2.58,2.27,5.25a2.24,2.24,0,0,0,2.66,1.51,2.18,2.18,0,0,0,1.51-2.66c-5.61-14.13-14.22-27-26.24-36.49a89.13,89.13,0,0,0-37.7-16.86c-14.27-2.87-29-3-43.45-1.47a230.54,230.54,0,0,0-43.92,9.27,276.48,276.48,0,0,0-39.59,15.73q-2.15,1.05-4.28,2.15c-2.48,1.27-.29,5,2.18,3.73Z" transform="translate(-402.52 -486.88)"/><path class="cls-1" d="M782.77,851.25a29.46,29.46,0,0,0,12.42,28.16,2.16,2.16,0,0,0,2.18-3.73,24.92,24.92,0,0,1-10.43-23.28,2.24,2.24,0,0,0-1.51-2.66,2.17,2.17,0,0,0-2.66,1.51Z" transform="translate(-402.52 -486.88)"/><path class="cls-1" d="M732.83,906.32c-.75,20.51-8.72,39.87-18.77,57.47-2.89,5.06-6,10-9.14,14.89-1.53,2.34,2.22,4.51,3.73,2.18,11.4-17.49,21.75-36.31,26.24-56.87a99.25,99.25,0,0,0,2.26-17.67c.11-2.78-4.22-2.77-4.32,0Z" transform="translate(-402.52 -486.88)"/><path class="cls-1" d="M798.11,1040.46a28,28,0,0,1,2.48,2.63l.38.47c-.12-.15.27.37.36.49.4.54.77,1.09,1.13,1.65.66,1,1.27,2.14,1.83,3.25.29.57.56,1.15.82,1.74.06.14.13.29.19.44.15.35-.19-.47.05.11.14.37.29.73.43,1.1a49.41,49.41,0,0,1,2.21,7.73,45.59,45.59,0,0,1,.93,8.06,42.3,42.3,0,0,1-2.23,16c-.22.63-.45,1.25-.7,1.86-.15.4,0,.12,0,0-.07.19-.15.37-.23.55s-.3.65-.46,1a32.64,32.64,0,0,1-1.95,3.46,19.43,19.43,0,0,1-2.1,2.78,25.25,25.25,0,0,1-2.82,2.75l-.37.31s-.53.4-.17.14l-1,.68c-.6.4-1.21.79-1.84,1.14a19.3,19.3,0,0,1-4,1.76,28.48,28.48,0,0,1-10.06,1.45c-2.79,0-2.79,4.29,0,4.32,6.38.09,12.89-1.37,18.19-5A30.46,30.46,0,0,0,809.79,1088c4.64-10.9,4.51-23.9.79-35-1.93-5.76-4.91-11.4-9.42-15.55-2-1.89-5.1,1.16-3,3Z" transform="translate(-402.52 -486.88)"/><path class="cls-1" d="M719.82,1152.3c17.29-1.81,34.74-.68,52,.77,18.65,1.57,37.29,3.55,56,3.82a245.25,245.25,0,0,0,33-1.59,2.23,2.23,0,0,0,2.16-2.17,2.18,2.18,0,0,0-2.16-2.16c-19.21,2.32-38.6,1.84-57.86.42-18.13-1.32-36.22-3.48-54.4-4.15a204.39,204.39,0,0,0-28.75.74,2.22,2.22,0,0,0-2.17,2.16,2.19,2.19,0,0,0,2.17,2.16Z" transform="translate(-402.52 -486.88)"/><path class="cls-1" d="M731.65,1206a228.82,228.82,0,0,0,27.09-.06,205.23,205.23,0,0,0,28.9-3.8,155,155,0,0,0,28-8.52,117.37,117.37,0,0,0,25.59-14.4,97.2,97.2,0,0,0,21-21.46q1.1-1.54,2.13-3.15c1.51-2.34-2.23-4.51-3.74-2.18-10.54,16.27-26.21,28.21-43.8,36-17.32,7.69-36.3,11.53-55.12,13a229.87,229.87,0,0,1-30,.26c-2.78-.15-2.77,4.17,0,4.32Z" transform="translate(-402.52 -486.88)"/><path class="cls-1" d="M724.66,1177.36c16.92-.25,33.85.09,50.76-.62,17.87-.74,35.78-2.62,53.16-7a178.12,178.12,0,0,0,30.09-10.48,2.17,2.17,0,0,0,.78-3,2.21,2.21,0,0,0-3-.78c-16.65,7.54-34.53,12.1-52.62,14.52-17,2.29-34.28,2.74-51.47,2.84-9.25,0-18.5,0-27.74.14-2.78,0-2.79,4.36,0,4.32Z" transform="translate(-402.52 -486.88)"/><path class="cls-1" d="M1046.72,995.4c-5.45,17.14-15.54,32.71-26.69,46.68a292.88,292.88,0,0,1-41.82,42.23,288.45,288.45,0,0,1-25,18.62c-2.31,1.52-.15,5.27,2.18,3.73a305.8,305.8,0,0,0,45.37-36.93c14.12-13.87,27.18-29.14,37.46-46.1a126.44,126.44,0,0,0,12.63-27.08c.85-2.66-3.32-3.79-4.16-1.15Z" transform="translate(-402.52 -486.88)"/><path class="cls-1" d="M1066.55,1116.91a601,601,0,0,1-38.55,56.75,502.52,502.52,0,0,1-46.57,52.73,390.46,390.46,0,0,1-54.6,44.94,300.6,300.6,0,0,1-62.1,32.49,251.53,251.53,0,0,1-69,15.57q-4.59.36-9.18.55c-2.77.11-2.78,4.43,0,4.32a254.28,254.28,0,0,0,71-13.29A297.1,297.1,0,0,0,921.44,1280a382.63,382.63,0,0,0,56.3-44.12,490.27,490.27,0,0,0,48.24-52.7,595.54,595.54,0,0,0,40-57q2.19-3.56,4.34-7.13c1.44-2.39-2.3-4.57-3.73-2.19Z" transform="translate(-402.52 -486.88)"/><path class="cls-1" d="M813.35,1322.6c2.64,9.82,5.52,19.58,8.08,29.43.87,3.35,1.68,6.72,2.34,10.12.3,1.59.58,3.19.81,4.79,0,.13.14,1.07.09.65l.15,1.24q.15,1.26.27,2.52c.38,4.17.5,8.36.51,12.54,0,2.78,4.32,2.79,4.32,0a121.63,121.63,0,0,0-1.74-21.56c-1.35-7.52-3.48-14.89-5.53-22.25-1.73-6.2-3.46-12.41-5.13-18.62-.73-2.69-4.9-1.55-4.17,1.14Z" transform="translate(-402.52 -486.88)"/><path class="cls-1" d="M1239.34,1266.73a422.65,422.65,0,0,0,39.77,20.74c14,6.46,28.33,12.36,42.71,18,14.54,5.7,29.18,11.15,43.81,16.64s29.14,11,43.56,16.87c14,5.7,27.89,11.75,41.45,18.47a354.65,354.65,0,0,1,38.51,21.88,234.13,234.13,0,0,1,33.53,26.57,183,183,0,0,1,27.19,32.91,178.13,178.13,0,0,1,19.32,40.8,219.63,219.63,0,0,1,9.9,50.06q.6,7,.83,14c.1,2.78,4.42,2.79,4.32,0a245.75,245.75,0,0,0-7.41-53.36,188.86,188.86,0,0,0-17.34-43.77,182.35,182.35,0,0,0-25.59-35.31,220.28,220.28,0,0,0-32.52-28.63,312.82,312.82,0,0,0-37.47-23.16c-13.42-7.14-27.23-13.5-41.21-19.45-14.44-6.14-29.07-11.85-43.74-17.41s-29.41-11-44.07-16.62-29-11.29-43.2-17.53c-13.87-6.07-27.54-12.62-40.77-20q-4.74-2.64-9.4-5.42c-2.39-1.43-4.57,2.3-2.18,3.73Z" transform="translate(-402.52 -486.88)"/><path class="cls-1" d="M1205.42,1303.27c7.81,37.35,12.87,75.29,14,113.45a521.13,521.13,0,0,1-6,96.58,552.69,552.69,0,0,1-20.84,85.55,831,831,0,0,1-30.33,77.8c-11.22,25.38-23.26,50.39-35.12,75.48q-2.17,4.59-4.33,9.18c-1.18,2.5,2.54,4.7,3.73,2.18,11.9-25.3,24.09-50.47,35.58-76s22.32-51.48,31.44-78a566.68,566.68,0,0,0,22.31-84.79,523.71,523.71,0,0,0,8.07-96.18c-.3-37.33-4.45-74.58-11.35-111.24q-1.44-7.62-3-15.19c-.57-2.72-4.74-1.57-4.17,1.15Z" transform="translate(-402.52 -486.88)"/><path class="cls-1" d="M824.59,1366.9c1.09,22.35,3.12,44.65,5.95,66.85q4.38,34.29,11.17,68.21,6.88,34.56,16.13,68.62,9.2,33.89,20.69,67.11,11.21,32.28,24.74,63.7,1.68,3.88,3.4,7.74c1.12,2.54,4.85.34,3.73-2.18q-13.77-31-25.1-63-11.67-32.73-21-66.25t-16.58-67.92q-7.05-33.81-11.78-68-4.56-33.29-6.58-66.86-.24-4-.43-8c-.13-2.76-4.46-2.78-4.32,0Z" transform="translate(-402.52 -486.88)"/><path class="cls-1" d="M591.92,1369.68c-18.5,15.43-36.69,31.26-54,48a542.37,542.37,0,0,0-48.54,53.11A407.16,407.16,0,0,0,449,1532.08a384,384,0,0,0-29.53,72.67,451.43,451.43,0,0,0-16,87.18q-.53,6-.92,12c-.18,2.78,4.14,2.77,4.33,0A461.25,461.25,0,0,1,421,1615.39a381.77,381.77,0,0,1,27.85-73.6,397.4,397.4,0,0,1,39-62,514.24,514.24,0,0,1,47.28-53.3c16.94-16.79,34.79-32.64,53-48q3.43-2.91,6.89-5.78c2.14-1.79-.93-4.83-3.05-3.06Z" transform="translate(-402.52 -486.88)"/><path class="cls-1" d="M832.72,616.49c23.19,6.38,46.23,13.46,68.71,22a347.79,347.79,0,0,1,47.44,21.72A194.65,194.65,0,0,1,966,671c1.25.89,2.49,1.79,3.71,2.72l.89.68c.33.25.07.05,0,0l.43.34c.63.48,1.24,1,1.86,1.47,2.11,1.71,4.17,3.47,6.16,5.31a98.32,98.32,0,0,1,10.18,10.83c.33.4.66.82,1,1.23-.4-.51.17.23.26.35l.55.73c.64.87,1.27,1.75,1.88,2.64,1.19,1.76,2.31,3.55,3.35,5.39s1.92,3.55,2.78,5.38l.56,1.23.29.68c0,.11.1.22.14.33.18.4-.18-.44,0-.07.36.9.72,1.79,1.06,2.69a83,83,0,0,1,3.19,10.72c.4,1.73.74,3.48,1,5.23.15.89.29,1.78.42,2.68.07.44.13.89.19,1.33s-.06-.48,0,.09c0,.26.06.52.1.78.44,3.51.75,7,1,10.55.49,7,.76,14.11,1.44,21.15a109.22,109.22,0,0,0,4,21.46,76.37,76.37,0,0,0,10.36,21.35,100.31,100.31,0,0,0,20.62,21.29q3.49,2.73,7.14,5.27a2.16,2.16,0,0,0,2.18-3.74c-1.24-.86-2.46-1.73-3.67-2.63l-1.76-1.31-.42-.33c.35.27,0,0-.06-.05-.31-.23-.61-.47-.91-.71-2.13-1.68-4.21-3.44-6.22-5.26a96.89,96.89,0,0,1-9.94-10.42l-1-1.32-.17-.22-.58-.77c-.64-.87-1.27-1.74-1.88-2.64q-1.75-2.57-3.3-5.27c-.95-1.68-1.84-3.41-2.66-5.16q-.32-.66-.6-1.32l-.29-.66-.09-.22c-.16-.35.21.51,0,0-.36-.87-.71-1.75-1-2.64a79.69,79.69,0,0,1-3.1-10.51c-.39-1.74-.73-3.48-1-5.24-.15-.88-.29-1.76-.42-2.65l-.09-.66c0-.18-.13-1,0-.19-.06-.45-.12-.89-.17-1.33-.86-7-1.19-14.07-1.62-21.12a185.51,185.51,0,0,0-2.33-21.69,81.35,81.35,0,0,0-22.24-43.41c-8.11-8.51-17.64-15.62-27.57-21.84-13.81-8.64-28.6-15.64-43.63-21.88a629.05,629.05,0,0,0-63.31-22q-9.3-2.76-18.67-5.32c-2.69-.74-3.83,3.43-1.15,4.16Z" transform="translate(-402.52 -486.88)"/></svg>